<mxfile host="app.diagrams.net" modified="2023-04-15T15:33:57.879Z" agent="Mozilla/5.0 (Windows NT 10.0; Win64; x64) AppleWebKit/537.36 (KHTML, like Gecko) Chrome/112.0.0.0 Safari/537.36 Edg/112.0.1722.46" etag="qG_z_g9fSfQ-CtZzulfw" version="21.1.8" type="device">
  <diagram name="Page-1" id="2YBvvXClWsGukQMizWep">
    <mxGraphModel dx="652" dy="427" grid="1" gridSize="10" guides="1" tooltips="1" connect="1" arrows="1" fold="1" page="1" pageScale="1" pageWidth="850" pageHeight="1100" math="0" shadow="0">
      <root>
        <mxCell id="0" />
        <mxCell id="1" parent="0" />
        <mxCell id="YZ9-tavg70rue4cTiQ0h-20" value="Buyer" style="shape=umlLifeline;perimeter=lifelinePerimeter;whiteSpace=wrap;html=1;container=0;dropTarget=0;collapsible=0;recursiveResize=0;outlineConnect=0;portConstraint=eastwest;newEdgeStyle={&quot;edgeStyle&quot;:&quot;elbowEdgeStyle&quot;,&quot;elbow&quot;:&quot;vertical&quot;,&quot;curved&quot;:0,&quot;rounded&quot;:0};" vertex="1" parent="1">
          <mxGeometry x="50" y="10" width="100" height="380" as="geometry" />
        </mxCell>
        <mxCell id="YZ9-tavg70rue4cTiQ0h-21" value="" style="html=1;points=[];perimeter=orthogonalPerimeter;outlineConnect=0;targetShapes=umlLifeline;portConstraint=eastwest;newEdgeStyle={&quot;edgeStyle&quot;:&quot;elbowEdgeStyle&quot;,&quot;elbow&quot;:&quot;vertical&quot;,&quot;curved&quot;:0,&quot;rounded&quot;:0};" vertex="1" parent="YZ9-tavg70rue4cTiQ0h-20">
          <mxGeometry x="45" y="40" width="10" height="310" as="geometry" />
        </mxCell>
        <mxCell id="YZ9-tavg70rue4cTiQ0h-22" value="Buyer menu" style="shape=umlLifeline;perimeter=lifelinePerimeter;whiteSpace=wrap;html=1;container=0;dropTarget=0;collapsible=0;recursiveResize=0;outlineConnect=0;portConstraint=eastwest;newEdgeStyle={&quot;edgeStyle&quot;:&quot;elbowEdgeStyle&quot;,&quot;elbow&quot;:&quot;vertical&quot;,&quot;curved&quot;:0,&quot;rounded&quot;:0};" vertex="1" parent="1">
          <mxGeometry x="230" y="10" width="100" height="370" as="geometry" />
        </mxCell>
        <mxCell id="YZ9-tavg70rue4cTiQ0h-23" value="" style="html=1;points=[];perimeter=orthogonalPerimeter;outlineConnect=0;targetShapes=umlLifeline;portConstraint=eastwest;newEdgeStyle={&quot;edgeStyle&quot;:&quot;elbowEdgeStyle&quot;,&quot;elbow&quot;:&quot;vertical&quot;,&quot;curved&quot;:0,&quot;rounded&quot;:0};" vertex="1" parent="YZ9-tavg70rue4cTiQ0h-22">
          <mxGeometry x="45" y="80" width="10" height="260" as="geometry" />
        </mxCell>
        <mxCell id="YZ9-tavg70rue4cTiQ0h-24" value="" style="endArrow=classic;html=1;rounded=0;" edge="1" parent="YZ9-tavg70rue4cTiQ0h-22" source="YZ9-tavg70rue4cTiQ0h-23" target="YZ9-tavg70rue4cTiQ0h-23">
          <mxGeometry width="50" height="50" relative="1" as="geometry">
            <mxPoint x="70" y="120" as="sourcePoint" />
            <mxPoint x="120" y="70" as="targetPoint" />
            <Array as="points">
              <mxPoint x="75" y="90" />
              <mxPoint x="75" y="120" />
            </Array>
          </mxGeometry>
        </mxCell>
        <mxCell id="YZ9-tavg70rue4cTiQ0h-25" value="" style="endArrow=classic;html=1;rounded=0;" edge="1" parent="YZ9-tavg70rue4cTiQ0h-22" source="YZ9-tavg70rue4cTiQ0h-23" target="YZ9-tavg70rue4cTiQ0h-23">
          <mxGeometry width="50" height="50" relative="1" as="geometry">
            <mxPoint x="50" y="200" as="sourcePoint" />
            <mxPoint x="100" y="150" as="targetPoint" />
            <Array as="points">
              <mxPoint x="75" y="160" />
              <mxPoint x="75" y="180" />
            </Array>
          </mxGeometry>
        </mxCell>
        <mxCell id="YZ9-tavg70rue4cTiQ0h-26" value="open" style="html=1;verticalAlign=bottom;endArrow=block;edgeStyle=elbowEdgeStyle;elbow=vertical;curved=0;rounded=0;" edge="1" parent="1" source="YZ9-tavg70rue4cTiQ0h-21" target="YZ9-tavg70rue4cTiQ0h-23">
          <mxGeometry relative="1" as="geometry">
            <mxPoint x="205" y="100" as="sourcePoint" />
            <Array as="points">
              <mxPoint x="190" y="90" />
            </Array>
          </mxGeometry>
        </mxCell>
        <mxCell id="YZ9-tavg70rue4cTiQ0h-27" value="show variants" style="text;html=1;align=center;verticalAlign=middle;resizable=0;points=[];autosize=1;strokeColor=none;fillColor=none;" vertex="1" parent="1">
          <mxGeometry x="300" y="100" width="100" height="30" as="geometry" />
        </mxCell>
        <mxCell id="YZ9-tavg70rue4cTiQ0h-28" value="" style="endArrow=classic;html=1;rounded=0;" edge="1" parent="1" source="YZ9-tavg70rue4cTiQ0h-21" target="YZ9-tavg70rue4cTiQ0h-23">
          <mxGeometry relative="1" as="geometry">
            <mxPoint x="160" y="159.57999999999998" as="sourcePoint" />
            <mxPoint x="260" y="159.57999999999998" as="targetPoint" />
            <Array as="points">
              <mxPoint x="230" y="160" />
            </Array>
          </mxGeometry>
        </mxCell>
        <mxCell id="YZ9-tavg70rue4cTiQ0h-29" value="check all buyed tickets" style="edgeLabel;resizable=0;html=1;align=center;verticalAlign=middle;" connectable="0" vertex="1" parent="YZ9-tavg70rue4cTiQ0h-28">
          <mxGeometry relative="1" as="geometry">
            <mxPoint y="-10" as="offset" />
          </mxGeometry>
        </mxCell>
        <mxCell id="YZ9-tavg70rue4cTiQ0h-30" value="alt" style="shape=umlFrame;whiteSpace=wrap;html=1;pointerEvents=0;" vertex="1" parent="1">
          <mxGeometry x="30" y="200" width="340" height="160" as="geometry" />
        </mxCell>
        <mxCell id="YZ9-tavg70rue4cTiQ0h-31" value="to check" style="text;html=1;align=center;verticalAlign=middle;resizable=0;points=[];autosize=1;strokeColor=none;fillColor=none;" vertex="1" parent="1">
          <mxGeometry x="300" y="165" width="70" height="30" as="geometry" />
        </mxCell>
        <mxCell id="YZ9-tavg70rue4cTiQ0h-32" value="[tickets aren&#39;t empty]" style="text;html=1;align=center;verticalAlign=middle;resizable=0;points=[];autosize=1;strokeColor=none;fillColor=none;" vertex="1" parent="1">
          <mxGeometry x="20" y="230" width="130" height="30" as="geometry" />
        </mxCell>
        <mxCell id="YZ9-tavg70rue4cTiQ0h-33" value="" style="endArrow=classic;html=1;rounded=0;dashed=1;" edge="1" parent="1" source="YZ9-tavg70rue4cTiQ0h-23" target="YZ9-tavg70rue4cTiQ0h-21">
          <mxGeometry relative="1" as="geometry">
            <mxPoint x="250" y="250" as="sourcePoint" />
            <mxPoint x="410" y="250" as="targetPoint" />
            <Array as="points">
              <mxPoint x="230" y="230" />
            </Array>
          </mxGeometry>
        </mxCell>
        <mxCell id="YZ9-tavg70rue4cTiQ0h-34" value="show all buyed tickets" style="edgeLabel;resizable=0;html=1;align=center;verticalAlign=middle;" connectable="0" vertex="1" parent="YZ9-tavg70rue4cTiQ0h-33">
          <mxGeometry relative="1" as="geometry">
            <mxPoint y="-10" as="offset" />
          </mxGeometry>
        </mxCell>
        <mxCell id="YZ9-tavg70rue4cTiQ0h-35" value="" style="endArrow=none;dashed=1;html=1;rounded=0;" edge="1" parent="1">
          <mxGeometry width="50" height="50" relative="1" as="geometry">
            <mxPoint x="10" y="290" as="sourcePoint" />
            <mxPoint x="400" y="290" as="targetPoint" />
          </mxGeometry>
        </mxCell>
        <mxCell id="YZ9-tavg70rue4cTiQ0h-36" value="[else]" style="text;html=1;align=center;verticalAlign=middle;resizable=0;points=[];autosize=1;strokeColor=none;fillColor=none;" vertex="1" parent="1">
          <mxGeometry x="30" y="290" width="50" height="30" as="geometry" />
        </mxCell>
        <mxCell id="YZ9-tavg70rue4cTiQ0h-37" value="" style="endArrow=classic;html=1;rounded=0;dashed=1;" edge="1" parent="1">
          <mxGeometry relative="1" as="geometry">
            <mxPoint x="275" y="330" as="sourcePoint" />
            <mxPoint x="105" y="330" as="targetPoint" />
            <Array as="points">
              <mxPoint x="240" y="330" />
            </Array>
          </mxGeometry>
        </mxCell>
        <mxCell id="YZ9-tavg70rue4cTiQ0h-38" value="empty" style="edgeLabel;resizable=0;html=1;align=center;verticalAlign=middle;" connectable="0" vertex="1" parent="YZ9-tavg70rue4cTiQ0h-37">
          <mxGeometry relative="1" as="geometry">
            <mxPoint y="-10" as="offset" />
          </mxGeometry>
        </mxCell>
        <mxCell id="YZ9-tavg70rue4cTiQ0h-39" value="BUYER CHECK ALL TICKETS" style="text;html=1;align=center;verticalAlign=middle;resizable=0;points=[];autosize=1;strokeColor=none;fillColor=none;strokeWidth=1;fontStyle=1" vertex="1" parent="1">
          <mxGeometry x="340" y="10" width="190" height="30" as="geometry" />
        </mxCell>
      </root>
    </mxGraphModel>
  </diagram>
</mxfile>
